<?xml version="1.0" encoding="iso-8859-1"?>
<!-- Generator: Adobe Illustrator 19.0.0, SVG Export Plug-In . SVG Version: 6.00 Build 0)  -->
<svg version="1.1" id="Layer_1" xmlns="http://www.w3.org/2000/svg" xmlns:xlink="http://www.w3.org/1999/xlink" x="0px" y="0px"
	 viewBox="0 0 512 512" style="enable-background:new 0 0 512 512;" xml:space="preserve">
<path style="fill:#10744A;" d="M155.773,220.106v-68.711c0-26.784-17.398-49.491-41.503-57.476V51.914h10.424v-33.47H69.663v33.47
	h8.331v41.432c-25.044,7.423-43.32,30.596-43.32,58.048v68.711L155.773,220.106L155.773,220.106z"/>
<path style="fill:#FFCD71;" d="M473.071,62.448l-4.828-1.689c-24.088-8.421-50.442,4.28-58.863,28.368L360.655,228.63
	l108.793-15.803l31.993-91.516C509.86,97.224,497.159,70.869,473.071,62.448z"/>
<polygon style="fill:#FF6638;" points="190.872,168.908 190.872,228.501 236.15,228.501 236.15,58.879 190.872,58.879 
	190.872,93.878 "/>
<rect x="286.302" y="75.598" style="fill:#CD2A00;" width="45.275" height="152.9"/>
<polygon style="fill:#FFCFB2;" points="135.373,212.828 512,212.828 512,262.462 0,262.462 0,212.828 58.762,212.828 "/>
<rect x="236.147" y="58.88" style="fill:#8D3C5D;" width="95.431" height="21.595"/>
<path style="opacity:0.13;fill:#CD2A00;enable-background:new    ;" d="M479.008,65.009c5.623,10.888,6.94,23.97,2.578,36.449
	l-26.153,74.811c-3.497,10.005-12.938,16.705-23.536,16.705h-58.822l-6.94,19.853h103.311l31.993-91.515
	C509.137,99.29,499.177,75.385,479.008,65.009z"/>
<g>
	<path style="fill:#FF6638;" d="M472.385,131.375c0,0-13.602,7.765-25.829,3.689c-12.226-4.076-18.448-18.45-18.448-18.45
		s13.602-7.765,25.829-3.688C466.163,117.001,472.385,131.375,472.385,131.375z"/>
	<path style="fill:#FF6638;" d="M454.4,181.918c0,0-13.603,7.765-25.829,3.688c-12.226-4.076-18.448-18.45-18.448-18.45
		s13.603-7.765,25.829-3.688C448.179,167.544,454.4,181.918,454.4,181.918z"/>
</g>
<path style="fill:#0B4E31;" d="M113.549,152.834c-9.056,6.881-26.47,7.748-46.672-1.307c-20.201-9.056-32.203,5.572-32.203,5.572
	v55.728h121.099v-46.672C145.057,145.953,122.605,145.953,113.549,152.834z"/>
<polygon style="fill:#FFA187;" points="470.204,492.861 41.796,492.861 0,260.893 512,260.893 "/>
<g>
	<polygon style="fill:#FF6638;" points="49.618,492.86 49.618,260.892 0.156,260.892 41.952,492.86 	"/>
	<polygon style="fill:#FF6638;" points="512,261.589 466.725,261.589 466.725,493.556 470.204,493.556 	"/>
	<rect x="107.102" y="260.89" style="fill:#FF6638;" width="63.391" height="231.967"/>
</g>
<rect x="107.102" y="323.584" style="fill:#CD2A00;" width="63.391" height="72.443"/>
<polygon style="fill:#FF6638;" points="226.398,492.861 226.398,428.511 226.398,356.485 226.398,260.893 289.789,260.893 
	289.789,492.861 "/>
<rect x="226.398" y="323.584" style="fill:#CD2A00;" width="63.391" height="72.443"/>
<rect x="345.694" y="260.89" style="fill:#FF6638;" width="63.391" height="231.967"/>
<g>
	<rect x="345.694" y="323.584" style="fill:#CD2A00;" width="63.391" height="72.443"/>
	<polygon style="opacity:0.3;fill:#CD2A00;enable-background:new    ;" points="451.429,260.892 418.859,441.66 32.425,441.66 
		41.651,492.86 470.059,492.86 511.855,260.892 	"/>
</g>
<g>
</g>
<g>
</g>
<g>
</g>
<g>
</g>
<g>
</g>
<g>
</g>
<g>
</g>
<g>
</g>
<g>
</g>
<g>
</g>
<g>
</g>
<g>
</g>
<g>
</g>
<g>
</g>
<g>
</g>
</svg>
