<svg height="464pt" viewBox="0 -24 464 464" width="464pt" xmlns="http://www.w3.org/2000/svg"><path d="m112 24h128v64h-128zm0 0" fill="#dd3e46"/><path d="m160 64h-48c-4.417969 0-8-3.582031-8-8s3.582031-8 8-8h48c4.417969 0 8 3.582031 8 8s-3.582031 8-8 8zm0 0" fill="#ffd782"/><path d="m200 64h-8c-4.417969 0-8-3.582031-8-8s3.582031-8 8-8h8c4.417969 0 8 3.582031 8 8s-3.582031 8-8 8zm0 0" fill="#ffd782"/><path d="m112 184c-4.417969 0-8-3.582031-8-8v-168c0-4.417969 3.582031-8 8-8s8 3.582031 8 8v168c0 4.417969-3.582031 8-8 8zm0 0" fill="#5a6470"/><path d="m464 344h-240l-112-208c39.1875 10.269531 79.492188 15.640625 120 16 40.507812-.359375 80.8125-5.730469 120-16zm0 0" fill="#55b56a"/><path d="m224 344h-224l112-208zm0 0" fill="#155e1f"/><path d="m112 240v104h56zm0 0" fill="#b2edbe"/><path d="m112 240v104h-56zm0 0" fill="#55b56a"/><path d="m408 320h-48c-4.417969 0-8-3.582031-8-8s3.582031-8 8-8h48c4.417969 0 8 3.582031 8 8s-3.582031 8-8 8zm0 0" fill="#b2edbe"/><path d="m328 320h-8c-4.417969 0-8-3.582031-8-8s3.582031-8 8-8h8c4.417969 0 8 3.582031 8 8s-3.582031 8-8 8zm0 0" fill="#b2edbe"/><path d="m256 320h-8c-4.417969 0-8-3.582031-8-8s3.582031-8 8-8h8c4.417969 0 8 3.582031 8 8s-3.582031 8-8 8zm0 0" fill="#b2edbe"/><g fill="#ad6327"><path d="m32 400h-8c-4.417969 0-8-3.582031-8-8s3.582031-8 8-8h8c4.417969 0 8 3.582031 8 8s-3.582031 8-8 8zm0 0"/><path d="m88 416h-8c-4.417969 0-8-3.582031-8-8s3.582031-8 8-8h8c4.417969 0 8 3.582031 8 8s-3.582031 8-8 8zm0 0"/><path d="m168 400h-8c-4.417969 0-8-3.582031-8-8s3.582031-8 8-8h8c4.417969 0 8 3.582031 8 8s-3.582031 8-8 8zm0 0"/><path d="m208 416h-8c-4.417969 0-8-3.582031-8-8s3.582031-8 8-8h8c4.417969 0 8 3.582031 8 8s-3.582031 8-8 8zm0 0"/><path d="m280 408h-8c-4.417969 0-8-3.582031-8-8s3.582031-8 8-8h8c4.417969 0 8 3.582031 8 8s-3.582031 8-8 8zm0 0"/><path d="m400 400h-8c-4.417969 0-8-3.582031-8-8s3.582031-8 8-8h8c4.417969 0 8 3.582031 8 8s-3.582031 8-8 8zm0 0"/><path d="m440 416h-8c-4.417969 0-8-3.582031-8-8s3.582031-8 8-8h8c4.417969 0 8 3.582031 8 8s-3.582031 8-8 8zm0 0"/></g></svg>